<?xml version="1.0" encoding="UTF-8"?>
<svg id="Layer_1" data-name="Layer 1" xmlns="http://www.w3.org/2000/svg" viewBox="0 0 600 600">
  <defs>
    <style>
      .cls-1 {
        fill: #fff;
      }
    </style>
  </defs>
  <path class="cls-1" d="M476.05,185.89l-166.46,101.93c-5.14,3.15-11.62,3.16-16.77.02l-168.18-102.33c-10.65-6.48-10.21-22.09.8-27.95l163.68-87.24c4.65-2.48,10.22-2.52,14.91-.12l170.96,87.65c11.18,5.73,11.78,21.49,1.06,28.05Z"/>
  <path class="cls-1" d="M506.5,220.99v193.6c0,5.56-2.86,10.72-7.58,13.66l-161.76,100.87c-10.72,6.69-24.61-1.02-24.61-13.66v-193.74c0-5.56,2.87-10.72,7.59-13.66l161.76-100.73c10.72-6.68,24.6,1.03,24.6,13.66Z"/>
  <path class="cls-1" d="M93.5,220.99v193.6c0,5.56,2.86,10.72,7.58,13.66l161.76,100.87c10.72,6.69,24.61-1.02,24.61-13.66v-193.74c0-5.56-2.87-10.72-7.59-13.66l-161.76-100.73c-10.72-6.68-24.6,1.03-24.6,13.66Z"/>
  <rect x="250.5" y="253.5" width="100" height="100" rx="26" ry="26"/>
</svg>